# xmcd CD database file
#
# Track frame offsets:
#	150
#	14930
#	40360
#	66635
#	82200
#	106855
#	128935
#	145107
#	162545
#
# Disc length: 2379 seconds
#
# Revision: 2
# Processed by: cddbd v1.4PL0 Copyright (c) Steve Scherf et al.
# Submitted via: CDex 1.50beta9
#
DISCID=8b094909
DTITLE=Myleka - Myleka
DYEAR=1988
DGENRE=Pop
TTITLE0=Smooth Talk
TTITLE1=Confess
TTITLE2=Mystery to Me
TTITLE3=I'll Always Be in Your Corner
TTITLE4=Trust In Me
TTITLE5=Ain't no Other Guy Like Mine
TTITLE6=Mr. D.J. Take My Dedication
TTITLE7=Love is the Reason
TTITLE8=Love Is
EXTD=YEAR: 1988
EXTT0=
EXTT1=
EXTT2=
EXTT3=
EXTT4=
EXTT5=
EXTT6=
EXTT7=
EXTT8=
PLAYORDER=
